<svg width="141" height="109" viewBox="0 0 141 109" fill="none" xmlns="http://www.w3.org/2000/svg">
<path d="M119.101 9.43844C110.03 5.23469 100.369 2.13719 90.1912 0.367188C88.9375 2.57969 87.4625 5.60344 86.5037 8.03719C75.7362 6.41469 65.0425 6.41469 54.4963 8.03719C53.4638 5.60344 51.9888 2.57969 50.7351 0.367188C40.5576 2.13719 30.8963 5.23469 21.8251 9.43844C3.53507 37.0209 -1.40618 63.9399 1.02757 90.4162C13.1963 99.4874 24.9226 104.945 36.5013 108.559C39.3776 104.65 41.8851 100.446 44.0976 96.0949C39.8938 94.5462 35.9113 92.5549 32.1501 90.2687C33.1826 89.5312 34.1413 88.7199 35.1001 87.9824C58.1837 98.7499 83.185 98.7499 105.974 87.9824C106.932 88.7937 107.891 89.5312 108.924 90.2687C105.162 92.5549 101.106 94.4724 96.9762 96.0949C99.1887 100.446 101.696 104.65 104.573 108.559C116.151 104.945 127.951 99.4874 140.046 90.4162C142.922 59.6624 135.105 33.0384 119.249 9.43844H119.101ZM47.1951 74.1912C40.2626 74.1912 34.5838 67.7749 34.5838 59.8837C34.5838 51.9924 40.1151 45.5762 47.1951 45.5762C54.2751 45.5762 59.88 51.9924 59.8062 59.8837C59.8062 67.7012 54.2751 74.1912 47.1951 74.1912ZM93.7312 74.1912C86.7987 74.1912 81.12 67.7749 81.12 59.8837C81.12 51.9924 86.6512 45.5762 93.7312 45.5762C100.811 45.5762 106.416 51.9924 106.342 59.8837C106.342 67.7012 100.811 74.1912 93.7312 74.1912Z" fill="white"/>
</svg>
