<svg width="119" height="109" viewBox="0 0 119 109" fill="none" xmlns="http://www.w3.org/2000/svg">
<path d="M4.79933 107.736H20.0095C22.108 107.736 23.8089 106.047 23.8089 103.964V37.9604C23.8089 35.8769 22.108 34.1885 20.0095 34.1885H4.79933C2.7007 34.1885 1 35.8769 1 37.9604V103.964C1 106.047 2.7007 107.736 4.79933 107.736Z" fill="white" stroke="white" stroke-width="1.44726"/>
<path d="M4.79933 22.5849H20.0095C22.108 22.5849 23.8089 20.8962 23.8089 18.813V5.40373C23.8089 3.32047 22.108 1.63184 20.0095 1.63184H4.79933C2.7007 1.63184 1 3.32047 1 5.40373V18.813C1 20.8962 2.7007 22.5849 4.79933 22.5849Z" fill="white" stroke="white" stroke-width="1.44726"/>
<path d="M112.277 41.8445C110.14 39.0514 106.988 36.7544 102.821 34.954C98.6541 33.1548 94.0543 32.2546 89.0216 32.2546C78.8051 32.2546 70.1481 36.1255 63.0509 43.8687C61.6387 45.4094 60.6119 45.0726 60.6119 42.9891V37.9608C60.6119 35.8773 58.9108 34.1889 56.8124 34.1889H43.2254C41.1268 34.1889 39.4261 35.8773 39.4261 37.9608V103.964C39.4261 106.048 41.127 107.736 43.2254 107.736H58.4356C60.5343 107.736 62.235 106.048 62.235 103.964V81.01C62.235 71.4473 62.8166 64.8926 63.9799 61.347C65.1428 57.8014 67.2945 54.9543 70.433 52.8053C73.572 50.6562 77.116 49.5812 81.0669 49.5812C84.1513 49.5812 86.7896 50.3335 88.9816 51.8382C91.1733 53.3428 92.7564 55.4504 93.7304 58.1641C94.7049 60.8773 95.1917 66.8539 95.1917 76.0948V103.964C95.1917 106.047 96.8924 107.736 98.9909 107.736H114.201C116.299 107.736 118 106.047 118 103.964V66.5852C118 59.9775 117.581 54.9003 116.743 51.3547C115.905 47.8091 114.416 44.6391 112.277 41.8445Z" fill="white" stroke="white" stroke-width="1.44726"/>
</svg>
