<svg width="111" height="115" viewBox="0 0 111 115" fill="none" xmlns="http://www.w3.org/2000/svg">
<path d="M25.2979 35.7831C25.8744 31.2563 31.8003 25.1039 36.5032 25.7866L36.4957 25.7792C41.0725 26.6426 44.6956 34.4632 46.7385 37.9797C48.1861 40.5311 47.2461 43.1162 45.896 44.207C44.0745 45.6644 41.2263 47.6754 41.8239 49.6945C42.8863 53.284 55.5 65.8066 61.7039 69.3665C64.052 70.7139 65.7549 67.16 67.209 65.3392C68.2655 63.9387 70.8715 63.1017 73.4356 64.4842C77.2651 66.6982 80.8726 69.2713 84.2086 72.168C85.8746 73.5505 86.2656 75.5937 85.1112 77.7531C83.0779 81.5565 77.1969 86.572 72.928 85.5527C65.4718 83.773 35.3182 72.168 25.6325 38.5475C25.0878 36.957 25.225 36.3557 25.2979 35.7831Z" fill="white"/>
<path fill-rule="evenodd" clip-rule="evenodd" d="M55.5 110.888C49.3264 110.888 45.9106 110.23 40.3636 108.383L29.7401 113.657C23.0306 116.987 15.1364 112.144 15.1364 104.696V93.3564C4.27123 83.2983 0 71.7009 0 55.7887C0 25.3582 24.8482 0.689453 55.5 0.689453C86.1516 0.689453 111 25.3582 111 55.7887C111 86.219 86.1516 110.888 55.5 110.888ZM25.2273 89.0001L22.0181 86.0292C13.5767 78.2151 10.0909 69.4789 10.0909 55.7887C10.0909 30.8911 30.4213 10.7075 55.5 10.7075C80.5789 10.7075 100.909 30.8911 100.909 55.7887C100.909 80.6866 80.5789 100.87 55.5 100.87C50.5267 100.87 48.1942 100.424 43.5723 98.8854L39.5991 97.5625L25.2273 104.696V89.0001Z" fill="white"/>
</svg>
